# xmcd
#
# Track frame offsets: 
#        150
#        11490
#        23560
#        36765
#        49907
#        62802
#        77180
#        90052
#        102702
#        116647
#        129200
#        143272
#        155830
#        166855
#
# Disc length: 2367 seconds
#
# Revision: 0
# Processed by: cddbd v1.5.2PL0 Copyright (c) Steve Scherf et al.
# Submitted via: ExactAudioCopy v0.95b3
#
DISCID=a6093d0e
DTITLE=Muddy Waters -  Trouble No More ( Singles 1955-1969)-  2004 {Ja
DTITLE=panese Edition UICY-3418}
DYEAR=2004
DGENRE=Blues
TTITLE0=Sugar Sweet
TTITLE1=Trouble No More
TTITLE2=All Aboard
TTITLE3=Don't Go No Further
TTITLE4=I Love The Life I Live, I Live The Life I Love
TTITLE5=Rock Me
TTITLE6=Got My Mojo Working
TTITLE7=She's Got It
TTITLE8=Close To You
TTITLE9=Mean Mistreater
TTITLE10=Take The Bitter With The Sweet
TTITLE11=She's Into Something
TTITLE12=Diamonds At Your Feet
TTITLE13=Look What You've Done
EXTD=
EXTT0=
EXTT1=
EXTT2=
EXTT3=
EXTT4=
EXTT5=
EXTT6=
EXTT7=
EXTT8=
EXTT9=
EXTT10=
EXTT11=
EXTT12=
EXTT13=
PLAYORDER=
